<?xml version="1.0" standalone="no"?>
<!DOCTYPE svg PUBLIC "-//W3C//DTD SVG 20010904//EN"
 "http://www.w3.org/TR/2001/REC-SVG-20010904/DTD/svg10.dtd">
<svg version="1.0" xmlns="http://www.w3.org/2000/svg"
 width="1280.000000pt" height="1280.000000pt" viewBox="0 0 1280.000000 1280.000000"
 preserveAspectRatio="xMidYMid meet">
<metadata>
Created by potrace 1.14, written by Peter Selinger 2001-2017
</metadata>
<g transform="translate(0.000000,1280.000000) scale(0.100000,-0.100000)"
fill="#000000" stroke="none">
<path d="M4950 11442 c-21 -6 -91 -40 -115 -55 -11 -6 -39 -31 -62 -53 -23
-23 -45 -39 -48 -36 -3 3 -5 1 -5 -4 0 -6 -15 -26 -32 -46 -54 -59 -68 -78
-68 -88 0 -6 -4 -10 -10 -10 -5 0 -10 -7 -10 -15 0 -9 -7 -18 -15 -21 -8 -4
-12 -10 -9 -15 3 -5 0 -9 -5 -9 -6 0 -11 -6 -11 -14 0 -8 -3 -16 -7 -18 -14
-6 -53 -67 -53 -83 0 -8 -4 -15 -10 -15 -5 0 -10 -6 -10 -12 0 -7 -6 -24 -13
-38 -7 -14 -19 -45 -27 -70 -7 -25 -17 -49 -20 -55 -11 -16 -95 -300 -106
-360 -4 -23 -12 -59 -20 -95 -10 -46 -22 -105 -27 -135 -3 -16 -12 -59 -20
-95 -8 -36 -23 -112 -32 -170 -9 -58 -18 -116 -20 -130 -2 -14 -7 -50 -10 -80
-3 -30 -9 -68 -11 -85 -3 -16 -7 -52 -9 -80 -3 -27 -7 -66 -10 -85 -2 -19 -7
-62 -10 -95 -3 -33 -7 -80 -10 -105 -2 -25 -7 -85 -10 -135 -3 -49 -7 -117
-10 -150 -15 -203 -24 -715 -12 -715 4 0 3 -8 -2 -19 -6 -10 -8 -20 -6 -23 7
-6 18 -408 11 -408 -3 0 -97 91 -209 203 -193 191 -315 306 -416 394 -25 21
-52 46 -60 56 -9 9 -19 17 -24 17 -4 0 -23 16 -42 35 -19 19 -35 32 -35 30 0
-5 -32 20 -62 48 -10 9 -21 17 -25 17 -5 0 -23 14 -40 30 -18 17 -36 31 -40
32 -9 1 -85 50 -93 59 -3 3 -12 9 -20 12 -8 4 -31 17 -50 29 -139 85 -370 181
-490 204 -8 2 -31 6 -50 10 -114 23 -324 34 -385 21 -11 -3 -49 -8 -85 -12
-59 -6 -67 -5 -90 16 -77 68 -440 286 -454 272 -3 -4 -6 -1 -6 5 0 7 -8 12
-19 12 -10 0 -24 7 -31 15 -7 9 -15 13 -17 11 -3 -2 -25 4 -49 14 -24 11 -46
20 -49 20 -3 0 -6 0 -7 1 -3 1 -7 2 -58 14 -194 47 -323 12 -425 -117 -16 -20
-42 -87 -60 -159 -16 -62 -29 -349 -16 -349 3 0 6 -21 5 -48 0 -26 4 -65 8
-87 5 -22 10 -49 12 -60 6 -48 30 -141 38 -149 4 -6 8 -18 8 -27 0 -22 122
-314 150 -359 5 -8 19 -34 31 -58 12 -24 44 -83 72 -130 27 -48 59 -104 71
-126 12 -21 27 -41 34 -43 6 -3 12 -13 12 -23 0 -10 3 -20 8 -22 4 -1 34 -43
66 -93 32 -49 63 -91 68 -93 4 -2 8 -10 8 -17 0 -7 4 -15 8 -17 5 -1 23 -25
42 -53 18 -27 36 -52 40 -55 3 -3 30 -36 60 -75 30 -38 58 -71 62 -73 5 -2 8
-8 8 -14 0 -5 6 -15 13 -22 6 -7 30 -34 52 -61 22 -27 47 -56 55 -65 8 -9 40
-45 70 -81 161 -189 467 -498 649 -656 24 -21 56 -49 71 -63 15 -14 46 -41 70
-60 23 -19 53 -45 66 -57 13 -13 26 -23 29 -23 4 0 12 -6 19 -12 7 -7 27 -24
45 -38 18 -14 39 -31 46 -37 8 -7 19 -13 25 -13 6 0 8 -4 5 -10 -3 -5 0 -10 7
-10 7 0 27 -14 45 -30 18 -17 34 -30 37 -30 8 0 129 -92 138 -105 5 -6 8 -6 8
0 0 6 3 6 8 -1 4 -5 31 -25 60 -44 28 -18 52 -37 52 -42 0 -4 8 -8 19 -8 10 0
24 -6 30 -14 7 -8 59 -43 117 -77 57 -34 104 -66 104 -72 0 -11 -71 -110 -82
-115 -5 -2 -8 -10 -8 -18 0 -7 -9 -19 -20 -26 -11 -7 -20 -18 -20 -25 0 -6 -3
-13 -7 -15 -9 -3 -253 -369 -273 -408 -7 -14 -16 -27 -19 -30 -4 -3 -18 -26
-31 -52 -14 -27 -28 -48 -32 -48 -5 0 -8 -6 -8 -14 0 -8 -7 -21 -15 -30 -9 -8
-16 -19 -17 -23 0 -4 -6 -17 -13 -28 -28 -44 -115 -208 -115 -215 0 -5 -3 -10
-7 -12 -5 -1 -22 -32 -40 -68 -17 -36 -58 -119 -90 -185 -33 -66 -85 -182
-117 -258 -32 -76 -67 -149 -78 -162 -24 -30 -132 -115 -147 -115 -6 0 -11 -5
-11 -10 0 -6 -3 -9 -8 -8 -4 1 -20 -2 -35 -7 -81 -22 -169 4 -247 75 -198 180
-218 193 -299 196 -36 2 -74 -2 -85 -9 -12 -6 -24 -10 -28 -9 -24 6 -268 -276
-268 -310 0 -5 -12 -27 -27 -51 -14 -23 -25 -42 -24 -42 1 0 -3 -13 -10 -30
-7 -16 -13 -34 -14 -40 -2 -5 -7 -28 -13 -50 -6 -22 -13 -51 -16 -65 -3 -14
-8 -36 -11 -50 -7 -30 -7 -147 -1 -175 18 -80 41 -156 57 -189 10 -22 19 -46
19 -53 0 -7 5 -13 10 -13 6 0 10 -6 10 -13 0 -7 9 -23 20 -35 11 -12 20 -25
20 -31 0 -5 43 -53 95 -107 52 -54 95 -94 95 -89 0 6 3 5 8 -1 11 -16 119 -87
182 -120 30 -15 57 -31 60 -34 3 -4 14 -9 25 -13 11 -3 49 -18 85 -33 108 -45
352 -113 460 -129 24 -4 47 -8 50 -10 3 -1 37 -6 75 -9 39 -4 77 -9 85 -11 24
-6 148 -15 312 -21 165 -6 175 -9 198 -65 7 -16 17 -29 22 -29 5 0 6 -4 3 -10
-3 -5 -2 -10 3 -10 5 0 12 -8 16 -17 8 -24 96 -156 115 -173 3 -3 19 -24 34
-47 35 -50 214 -223 232 -223 7 0 15 -3 17 -7 8 -18 178 -112 178 -98 0 1 19
-3 43 -10 42 -12 209 -13 257 0 14 3 39 9 55 11 39 7 206 73 225 90 8 7 27 16
43 19 15 4 27 11 27 15 0 4 9 10 19 13 13 3 29 -6 51 -31 52 -58 183 -157 225
-168 6 -2 33 -9 60 -17 100 -28 225 -8 347 56 96 50 107 58 192 121 134 99
188 151 251 240 11 16 26 34 33 42 18 19 62 109 62 127 0 10 18 19 53 27 84
19 271 83 279 94 4 6 8 8 8 4 0 -8 157 57 177 74 7 6 13 8 13 4 0 -3 15 3 33
13 17 10 59 33 92 51 33 18 77 44 97 57 21 12 42 23 47 23 5 0 11 4 13 9 2 4
21 20 43 34 54 36 125 86 141 100 7 7 30 26 50 42 104 83 235 212 338 335 39
47 73 87 76 90 15 15 100 131 110 151 7 13 16 26 20 29 4 3 22 30 41 60 18 30
36 57 39 60 3 3 17 26 30 53 14 26 29 47 33 47 5 0 5 4 2 10 -3 5 -2 10 4 10
6 0 13 11 17 25 3 14 10 25 16 25 5 0 6 5 3 10 -3 6 -1 10 4 10 6 0 10 3 9 8
-1 4 11 32 27 62 16 30 29 57 30 60 0 3 14 34 31 70 57 119 75 159 79 177 2
10 21 61 43 114 21 52 49 126 61 165 13 38 25 76 28 84 3 8 8 24 10 34 2 11
10 39 18 62 8 24 17 53 19 66 3 13 10 39 16 58 17 53 17 54 55 213 19 81 37
165 41 185 7 49 11 72 18 102 11 53 16 76 21 115 3 22 7 49 9 60 2 11 7 38 10
60 4 22 11 61 16 88 6 26 12 77 16 113 3 36 8 75 10 87 3 12 7 58 9 102 3 44
5 80 6 80 5 0 18 145 24 275 3 74 15 247 20 300 1 19 8 36 14 38 14 5 90 72
165 144 32 32 60 58 62 58 6 0 44 39 44 45 0 2 17 21 38 43 20 21 61 67 91
103 30 35 60 69 66 74 13 12 111 147 133 182 9 14 67 26 125 26 20 0 37 5 37
10 0 6 3 8 6 5 3 -4 -4 -50 -16 -105 -12 -54 -23 -109 -25 -123 -1 -14 -6 -59
-11 -100 -10 -90 -10 -312 0 -395 3 -33 8 -78 11 -100 2 -22 7 -51 10 -65 3
-14 8 -34 10 -45 10 -44 15 -66 20 -82 13 -50 26 -100 30 -117 10 -42 39 -124
62 -176 l25 -55 24 53 c13 29 33 65 44 80 26 32 71 63 82 56 4 -3 8 -1 8 4 0
17 70 30 178 33 l73 3 -25 20 c-14 12 -44 32 -67 46 -22 14 -53 36 -68 50 -40
37 -111 126 -111 139 0 6 -4 11 -8 11 -9 0 -65 122 -63 137 0 2 -6 21 -14 44
-9 23 -17 58 -20 78 -3 20 -8 50 -11 66 -7 34 -7 251 -1 305 3 19 8 62 12 95
3 33 9 69 13 80 3 11 6 25 7 30 1 22 17 55 26 56 5 1 12 2 17 3 4 2 28 6 55
10 26 5 50 12 53 17 3 5 9 7 14 4 5 -3 28 -1 52 5 24 6 54 13 68 16 90 19 267
68 305 85 11 4 34 12 51 16 l32 8 -105 140 c-58 77 -109 142 -114 143 -5 2 -9
8 -9 13 0 10 -18 32 -72 90 -35 37 -49 73 -30 81 4 2 29 36 56 75 26 40 51 75
56 78 8 5 63 -34 148 -106 13 -10 28 -19 33 -19 5 0 9 -5 9 -12 0 -6 3 -9 6
-5 3 3 15 -3 27 -14 11 -10 27 -19 34 -19 7 0 13 -3 13 -7 0 -5 10 -13 23 -18
12 -6 40 -20 62 -32 40 -22 77 -38 145 -64 37 -14 39 -15 85 -24 17 -3 37 -8
45 -11 28 -11 215 -13 265 -3 28 6 79 19 115 30 73 23 300 133 329 160 10 10
22 15 25 12 3 -4 6 -1 6 5 0 7 5 12 10 12 6 0 16 5 23 11 7 5 46 35 87 65 68
50 109 81 143 109 73 60 134 112 143 120 6 6 40 35 75 65 73 63 159 146 159
153 0 5 -73 1 -125 -7 -50 -8 -252 -18 -349 -19 -108 0 -406 12 -415 17 -3 2
-37 7 -76 11 -81 9 -110 13 -110 15 0 1 -13 3 -30 5 -38 4 -117 14 -173 21
-163 22 -330 5 -424 -42 -27 -13 -48 -19 -48 -14 0 6 3 10 8 10 4 0 16 15 26
34 10 19 25 37 32 40 8 3 14 13 14 21 0 9 4 14 9 10 5 -3 11 1 13 9 3 16 78
105 150 178 25 26 44 48 41 48 -2 0 10 12 29 27 18 15 43 38 55 50 12 13 24
23 27 23 3 0 22 16 43 35 21 19 40 35 43 35 3 0 11 -12 17 -27 38 -89 166
-222 250 -260 100 -46 234 -60 373 -38 25 4 73 8 107 10 34 2 66 5 70 8 5 3
40 8 79 12 38 3 103 8 144 12 99 8 393 8 500 0 158 -13 200 -14 200 -4 0 12
-119 124 -230 218 -62 52 -124 105 -134 114 -6 6 -30 23 -54 39 -24 16 -47 36
-52 45 -5 9 -10 12 -10 8 0 -5 -21 7 -47 26 -125 91 -314 176 -435 195 -92 14
-220 5 -295 -22 -24 -8 -43 -14 -43 -12 0 1 26 20 58 42 31 21 59 42 62 45 3
3 15 9 28 13 12 4 22 12 22 17 0 6 5 7 10 4 6 -3 10 -2 10 3 0 5 20 20 45 33
25 13 45 27 45 30 0 20 39 14 107 -17 98 -45 113 -51 155 -64 142 -41 287 -48
405 -20 78 19 175 57 181 73 2 4 7 5 12 2 5 -3 14 1 22 8 7 7 26 20 41 30 32
20 61 43 89 70 10 9 23 17 30 17 6 0 9 2 6 5 -2 3 24 35 60 72 35 38 95 115
134 172 67 101 196 343 204 384 2 11 9 24 15 27 6 4 10 9 9 11 -2 5 8 35 20
64 5 11 18 41 28 67 11 25 18 49 15 52 -3 2 -1 11 3 18 5 7 9 18 10 23 1 6 5
18 9 28 6 14 -17 6 -91 -34 -129 -68 -212 -109 -224 -109 -6 0 -10 -5 -10 -11
0 -5 -4 -8 -9 -5 -4 3 -45 -8 -90 -23 -44 -16 -81 -27 -81 -24 0 3 -6 1 -12
-5 -15 -12 -188 -49 -273 -58 -33 -3 -63 -8 -66 -10 -7 -4 -156 -18 -184 -16
-238 11 -319 -7 -395 -88 -34 -36 -77 -111 -85 -147 -2 -10 -8 -30 -13 -45
-19 -47 -40 -187 -47 -301 -1 -32 -4 -60 -6 -61 -2 -2 -42 -22 -88 -45 -46
-23 -95 -51 -109 -61 -13 -11 -31 -20 -38 -20 -8 0 -14 -4 -14 -10 0 -5 -5
-10 -11 -10 -6 0 -17 -7 -26 -15 -25 -25 -25 -12 -1 41 19 42 22 67 22 174 0
136 -9 230 -30 334 -2 11 -7 37 -9 56 -3 19 -8 45 -11 58 -2 12 -7 48 -10 80
-3 31 -8 75 -11 97 -7 54 -10 447 -4 460 8 16 7 96 -2 102 -4 2 -3 11 4 19 6
8 9 17 6 21 -9 8 -150 -142 -196 -210 -8 -12 -18 -24 -21 -27 -4 -3 -44 -54
-89 -115 -45 -60 -85 -115 -90 -120 -22 -29 -43 -65 -37 -65 4 0 -2 -10 -13
-22 -11 -11 -18 -25 -15 -30 3 -4 0 -8 -6 -8 -5 0 -21 -24 -34 -52 -13 -29
-33 -73 -44 -98 -35 -78 -54 -171 -54 -265 -1 -96 5 -151 15 -162 4 -3 7 -17
7 -30 0 -13 4 -31 9 -41 10 -17 22 -53 22 -62 0 -3 7 -12 15 -22 9 -9 16 -23
18 -31 1 -8 9 -26 19 -40 9 -15 17 -31 17 -36 0 -5 3 -11 8 -13 4 -1 23 -25
42 -53 19 -27 39 -55 45 -62 5 -6 20 -24 32 -40 12 -15 31 -39 43 -53 24 -28
25 -26 -45 -75 -15 -11 -35 -27 -44 -35 -9 -8 -29 -23 -45 -34 -16 -10 -42
-30 -59 -45 -102 -88 -147 -129 -189 -173 -30 -30 -47 -42 -45 -31 1 10 6 23
10 30 12 19 51 155 64 223 10 58 5 199 -11 275 -9 43 -60 180 -68 183 -4 2 -6
8 -2 13 3 5 1 9 -4 9 -6 0 -13 12 -16 26 -4 14 -11 31 -16 37 -6 7 -41 56 -79
110 -80 114 -126 169 -254 301 -51 53 -91 99 -88 101 2 3 0 5 -6 5 -5 0 -48
37 -95 83 -48 45 -108 100 -134 122 -27 22 -55 48 -63 58 -16 18 -36 24 -26 7
3 -5 1 -10 -6 -10 -8 0 -8 -4 -1 -12 5 -7 13 -31 16 -53 3 -22 9 -56 12 -75 4
-19 7 -45 8 -57 0 -13 3 -23 7 -23 4 0 7 -8 7 -17 0 -10 3 -40 7 -68 4 -27 9
-61 10 -75 2 -14 4 -25 5 -25 1 0 3 -18 4 -40 1 -23 6 -47 11 -54 6 -10 4 -12
-5 -6 -9 6 -11 4 -5 -5 14 -23 24 -567 11 -589 -4 -6 -1 -11 6 -11 8 0 9 -3 3
-8 -11 -7 -12 -287 -2 -352 11 -65 18 -94 26 -105 4 -5 14 -26 21 -45 8 -19
23 -48 34 -65 26 -37 156 -165 169 -165 4 0 24 -12 43 -26 19 -15 34 -23 34
-19 0 5 8 1 18 -8 10 -9 33 -22 50 -28 l32 -11 -22 -28 c-13 -16 -34 -45 -48
-65 -14 -20 -35 -47 -47 -60 -13 -13 -23 -28 -23 -32 0 -5 -14 -24 -30 -43
-37 -43 -33 -37 -105 -137 -32 -46 -62 -83 -66 -83 -5 0 -19 11 -33 25 -14 14
-29 25 -35 25 -5 0 -11 4 -13 8 -1 4 -28 23 -58 41 -65 40 -73 50 -55 71 15
18 47 90 38 90 -3 0 0 6 6 13 6 8 8 17 4 20 -3 4 -2 7 3 7 6 0 11 10 11 23 4
70 4 154 0 167 -2 8 -7 33 -12 55 -20 98 -82 213 -150 280 -45 44 -118 83
-170 90 -5 1 -13 3 -17 5 -5 1 -11 3 -15 4 -23 5 -45 24 -34 30 6 4 11 5 11 2
0 -3 11 -1 25 4 14 5 25 6 25 2 0 -4 12 -8 28 -8 15 -1 51 -4 80 -7 l52 -5
-17 30 c-10 17 -34 40 -53 52 -34 20 -107 29 -116 14 -3 -5 -14 -8 -25 -8 -11
0 -29 -9 -40 -19 -21 -19 -22 -19 -120 55 -356 264 -673 340 -1049 249 -8 -2
-16 -4 -17 -5 -3 -3 -5 -3 -48 -15 -40 -10 -249 -114 -253 -126 -2 -5 -8 -9
-14 -9 -11 0 -101 -61 -106 -72 -2 -5 -10 -8 -18 -8 -8 0 -14 -4 -14 -8 0 -4
-22 -24 -48 -44 -82 -63 -253 -239 -333 -343 -13 -16 -28 -35 -34 -42 -19 -23
-30 -38 -70 -93 -22 -30 -43 -59 -48 -65 -4 -5 -26 -39 -49 -75 -23 -36 -48
-71 -55 -78 -7 -7 -13 -18 -13 -24 0 -28 -14 7 -16 40 -1 20 -3 37 -5 37 -3 0
-19 138 -22 183 0 6 -3 12 -6 12 -3 0 -6 17 -7 38 0 38 -4 68 -24 202 -6 41
-13 91 -15 110 -5 46 -11 83 -25 150 -12 58 -16 82 -25 143 -3 21 -12 70 -20
110 -8 40 -16 83 -19 97 -2 14 -12 59 -21 100 -9 41 -18 85 -21 96 -18 91
-118 389 -157 473 -11 24 -20 50 -20 57 0 8 -3 14 -6 14 -3 0 -24 35 -46 78
-22 42 -43 79 -48 80 -4 2 -5 8 -1 13 3 5 0 9 -5 9 -6 0 -11 7 -11 15 0 8 -4
15 -8 15 -4 0 -16 14 -25 30 -10 17 -35 50 -55 74 -95 111 -107 129 -108 159
-1 18 -5 52 -8 77 -4 25 -9 63 -11 85 -2 22 -6 54 -9 70 -2 17 -7 53 -11 80
-4 28 -9 53 -11 57 -2 3 -7 26 -9 50 -6 46 -13 83 -15 83 -1 0 -3 11 -6 25 -4
24 -29 110 -41 140 -3 8 -7 22 -8 30 -1 8 -12 44 -25 80 -71 205 -177 349
-275 375 -36 9 -96 13 -115 7z"/>
</g>
</svg>
